<svg xmlns="http://www.w3.org/2000/svg" version="1.1" xmlns:xlink="http://www.w3.org/1999/xlink" width="1500" height="1500" viewBox="0 0 1500 1500"><rect width="1500" height="1500" x="0" y="0" id="background" stroke="transparent" fill="#f8f8f8"></rect><svg xml:space="preserve" width="1000" height="1000" data-version="2" data-id="lg_hwzE0x5CjQe1jKdiR7" viewBox="0 0 572 75" x="250" y="250"><rect width="100%" height="100%" fill="transparent"></rect><path fill="#151515" d="M25.035 39.955q0 3.2.69 6.42.69 3.22 2.29 5.8 1.6 2.57 4.22 4.17 2.62 1.6 6.48 1.6 2.98-.17 5.22-1.22 2.25-1.04 3.87-2.71 1.62-1.66 2.69-3.82 1.07-2.15 1.69-4.53.62-2.38.86-4.87.25-2.49.25-4.8 0-3.15-.85-6.11-.84-2.95-2.53-5.22-1.69-2.26-4.2-3.64-2.51-1.38-5.84-1.38-2.62 0-4.73.98-2.11.98-3.76 2.6-1.64 1.62-2.82 3.73t-1.95 4.36q-.78 2.24-1.16 4.48-.38 2.25-.42 4.16m8.66 32.61q-6.66 0-11.91-2.49-5.24-2.48-8.86-6.73-3.62-4.24-5.55-9.82-1.94-5.57-1.94-11.79 0-6.98 1.98-12.87 1.98-5.89 5.53-10.44 3.56-4.55 8.47-7.69 4.91-3.13 10.77-4.64.54 0 .82-.84.29-.85.52-1.87.22-1.02.53-1.87.31-.84.89-.84 8.62.89 15.5 3.04 6.89 2.16 11.69 6.16t7.35 10.11q2.56 6.11 2.56 14.9 0 5.65-1.38 10.62-1.38 4.98-3.86 9.18-2.49 4.2-5.98 7.51-3.49 3.31-7.75 5.62-4.27 2.31-9.18 3.53-4.91 1.22-10.2 1.22"></path><rect width="66.61" height="71.89" x="-33.3" y="-35.95" fill="none" rx="0" ry="0" transform="translate(39.24 37.12)"></rect><path fill="#151515" d="M134.165 24.095q-.05 3.82-.74 6.84-.68 3.02-1.95 5.44-1.27 2.42-3.07 4.36-1.8 1.93-4.11 3.62-4.44 3.2-9.73 4.82t-10.62 1.62q-.89 0-1.75-.04-.87-.05-1.76-.14l-1.46 16.22-.76 1.38q-.09.18-1.51.71t-3.55 1.24l-2.8.94q-1.34.49-2.36.89-1.02.4-1.91.71-.89.31-1.73.46-.85.16-1.78.16-.62 0-.98-.31-.35-.31-.35-1.2l.49-7.6q.13-2.27.33-4.56.2-2.28.38-5.22l.84-10.62q.27-3.24.49-6.48.22-3.25.44-6.18.23-2.93.4-5.49.18-2.55.31-4.46-2.39.53-3.84.78-1.44.24-2.2.24-.93 0-.93-.8.62-2.18 1.15-4.27.49-1.77 1-3.66.51-1.89.87-3.18.22-.8.51-1.22.29-.42.76-.67.46-.24 1.2-.44.73-.2 1.8-.56.84-.26 2.37-.6 1.54-.33 3.51-.66 1.98-.34 4.29-.65t4.69-.55q2.38-.25 4.69-.4 2.31-.16 4.35-.16 5.07 0 9.6.93 4.53.94 7.95 3.18 3.42 2.25 5.45 6.04 2.02 3.8 2.02 9.54m-32.48 13.33q0 .48.17.86.18.38.98.38 1.25 0 2.96-.56 1.71-.55 3.42-1.66 1.71-1.11 3.17-2.76 1.47-1.64 2.23-3.86.31-.89.51-2.27t.2-3.24q0-3.11-2.16-4.58-2.15-1.47-5.62-1.47-.58 0-1.31.07-.73.07-1.38.25-.64.17-1.09.42-.44.24-.48.64l-.09.98q-.05.58-.18 1.89t-.29 3q-.15 1.69-.31 3.55-.16 1.87-.31 3.56-.16 1.69-.27 2.97-.11 1.29-.15 1.83"></path><rect width="56.21" height="68.92" x="-28.11" y="-34.46" fill="none" rx="0" ry="0" transform="translate(106.56 39.37)"></rect><path fill="#151515" d="M176.995 33.375q-.18.62-.67 1.76-.48 1.13-1.13 2.55-.64 1.42-1.38 3.05-.73 1.62-1.44 3.26-.27.62-.49.91-.22.29-.71.42-.49.14-1.35.16-.87.02-2.43.07l-6.17.13-1.25 13.6h22.8v1.73q-.09.09-.76 1.18-.66 1.09-1.55 2.6t-1.87 3.04q-.98 1.53-1.64 2.47-.45.8-1.03 1.26-.57.47-1.26.69-.69.22-1.51.27-.82.04-1.8.04-4 0-8.33-.17-4.34-.18-8.65-.45-4.31-.27-8.42-.6-4.11-.33-7.62-.69-.31-.04-.55-.35-.25-.31-.25-.71-.17 0 .25-.76.42-.76 1.18-1.95.75-1.2 1.66-2.74.91-1.53 1.76-3.09l.71-9.99q.18-2.54.29-3.78.11-1.24.11-1.33-2.67-.05-3.98-.27-1.31-.22-1.31-.98 0-.35.65-1.33.64-.98 1.57-2.24.94-1.27 1.98-2.65t1.84-2.53l1.11-15.11h-.13q-.98.05-1.78.07-.8.02-1.46.02-2.14 0-3.05-.24-.91-.25-.91-.91 0-.32.54-1.29.53-.98 1.33-2.25l1.69-2.66q.89-1.4 1.6-2.6l2.66-4.53h18.58l21.9-1.6q.05 0 .25.02t.42.13q.22.11.42.38.2.27.2.75l-.67 2.32q-.31.97-.75 2.06-.45 1.09-.98 2.25l-1.95 5.15q-.31.75-.71 1.15-.4.4-1.69.45-3.38.09-7.53.29-4.16.2-9.54.38-.17.62-.17 1 0 .37-.09 1.44l-.22 2.04q-.09 1.43-.27 3.07-.18 1.64-.45 4.04 2.27-.09 4.43-.18 2.15-.08 3.93-.15 1.78-.07 3.09-.11 1.31-.05 1.84-.05.36 0 .8.27.44.27.44 1.02 0 .36-.13.8"></path><rect width="50.19" height="67.71" x="-25.09" y="-33.85" fill="none" rx="0" ry="0" transform="translate(163.02 39.21)"></rect><path fill="#151515" d="M227.915 43.995v-33.28q.36-1.47.62-2.13.27-.67 1.16-.89l11.51-2.71q.53-.18 1.15-.18.58 0 .85.4.26.4.26 1.51-.26 1.07-.44 3.27t-.27 4.82q-.09 2.62-.13 5.26-.04 2.65-.04 4.6v2.45q0 2.75-.05 6-.04 3.24-.11 6.57t-.16 6.58q-.08 3.24-.17 6.09l-.27 7.59q-.04.23-.04.4v1.03q0 .75.02 1.26t.02.91q0 .45-.07.8-.06.36-.33.69-.27.33-.73.69-.47.36-1.27.89-.44.31-1.47.91-1.02.6-2.26 1.35-1.25.76-2.58 1.56t-2.44 1.44q-1.11.65-1.8 1.05l-.69.4-20.62-31.73-1.86 26q-.05.35-.16.75t-.6.62q-.4.18-1.38.56-.97.38-2.29.87-1.31.48-2.75 1-1.44.51-2.73.93-1.29.42-2.29.69-1 .26-1.36.26-.66 0-1.11-.35-.44-.36-.44-1.29.44-5.55 1.02-12.11.58-6.55 1.11-13.44.53-6.89 1-13.75.47-6.87.78-13.04 0-.18-.56-1.18-.55-1-1.24-2.18-.69-1.18-1.25-2.22-.55-1.04-.55-1.31 0-.31.33-.58.34-.26 1.09-.71l11.86-6.71q.14 0 .38-.04.25-.05.42-.05.49 0 .78.11.29.11.6.69z"></path><rect width="52.87" height="69.01" x="-26.43" y="-34.51" fill="none" rx="0" ry="0" transform="translate(217.53 39.32)"></rect><path fill="#151515" d="M307.405 24.095q-.04 3.82-.73 6.84t-1.95 5.44q-1.27 2.42-3.07 4.36-1.8 1.93-4.11 3.62-4.44 3.2-9.73 4.82t-10.62 1.62q-.89 0-1.76-.04-.86-.05-1.75-.14l-1.47 16.22-.75 1.38q-.09.18-1.51.71-1.43.53-3.56 1.24l-2.8.94q-1.33.49-2.35.89t-1.91.71q-.89.31-1.74.46-.84.16-1.77.16-.63 0-.98-.31-.36-.31-.36-1.2l.49-7.6q.14-2.27.34-4.56.2-2.28.37-5.22l.85-10.62q.26-3.24.49-6.48.22-3.25.44-6.18.22-2.93.4-5.49.18-2.55.31-4.46-2.4.53-3.84.78-1.45.24-2.2.24-.93 0-.93-.8.62-2.18 1.15-4.27.49-1.77 1-3.66.51-1.89.87-3.18.22-.8.51-1.22.29-.42.75-.67.47-.24 1.2-.44.74-.2 1.8-.56.85-.26 2.38-.6 1.53-.33 3.51-.66 1.98-.34 4.29-.65t4.69-.55q2.37-.25 4.68-.4 2.31-.16 4.36-.16 5.06 0 9.6.93 4.53.94 7.95 3.18 3.42 2.25 5.44 6.04 2.02 3.8 2.02 9.54m-32.48 13.33q0 .48.18.86t.98.38q1.24 0 2.95-.56 1.71-.55 3.42-1.66 1.72-1.11 3.18-2.76 1.47-1.64 2.22-3.86.31-.89.51-2.27t.2-3.24q0-3.11-2.15-4.58-2.16-1.47-5.62-1.47-.58 0-1.31.07-.74.07-1.38.25-.64.17-1.09.42-.44.24-.49.64l-.09.98q-.04.58-.17 1.89-.14 1.31-.29 3-.16 1.69-.31 3.55-.16 1.87-.31 3.56-.16 1.69-.27 2.97-.11 1.29-.16 1.83"></path><rect width="56.2" height="68.92" x="-28.1" y="-34.46" fill="none" rx="0" ry="0" transform="translate(279.8 39.37)"></rect><path fill="#151515" d="M329.715 39.955q0 3.2.69 6.42.69 3.22 2.29 5.8 1.6 2.57 4.22 4.17 2.62 1.6 6.49 1.6 2.97-.17 5.22-1.22 2.24-1.04 3.86-2.71 1.62-1.66 2.69-3.82 1.07-2.15 1.69-4.53.62-2.38.87-4.87.24-2.49.24-4.8 0-3.15-.84-6.11-.85-2.95-2.54-5.22-1.69-2.26-4.2-3.64-2.51-1.38-5.84-1.38-2.62 0-4.73.98-2.11.98-3.76 2.6-1.64 1.62-2.82 3.73t-1.95 4.36q-.78 2.24-1.16 4.48-.38 2.25-.42 4.16m8.66 32.61q-6.66 0-11.9-2.49-5.25-2.48-8.87-6.73-3.62-4.24-5.55-9.82-1.94-5.57-1.94-11.79 0-6.98 1.98-12.87 1.98-5.89 5.53-10.44 3.56-4.55 8.47-7.69 4.91-3.13 10.77-4.64.54 0 .83-.84.28-.85.51-1.87.22-1.02.53-1.87.31-.84.89-.84 8.62.89 15.51 3.04 6.88 2.16 11.68 6.16t7.36 10.11q2.55 6.11 2.55 14.9 0 5.65-1.38 10.62-1.37 4.98-3.86 9.18-2.49 4.2-5.98 7.51-3.49 3.31-7.75 5.62-4.27 2.31-9.18 3.53-4.91 1.22-10.2 1.22"></path><rect width="66.61" height="71.89" x="-33.3" y="-35.95" fill="none" rx="0" ry="0" transform="translate(343.92 37.12)"></rect><path fill="#151515" d="M406.365 6.585q-.05 1.07-.18 2.64-.13 1.58-.29 3.34-.15 1.75-.35 3.55-.2 1.8-.36 3.31-.16 1.51-.24 2.6-.09 1.09-.09 1.4-.18 2.75-.38 5.11-.2 2.35-.42 4.66-.23 2.32-.47 4.78-.24 2.47-.51 5.44l-.6 6.62q-.33 3.65-.69 8.36l18.4-1.87q1.24-.13 2.04-.13.98 0 1.22.31.25.31.25.98 0 .09-.05.24-.04.16-.2.6-.15.45-.44 1.29-.29.84-.78 2.36l-.98 2.93q-.49 1.42-.91 2.55-.42 1.14-1.04 1.96-.62.82-1.56 1.31-.93.49-2.4.62-.93.09-2.53.16-1.6.06-3.69.13t-4.51.16q-2.42.08-4.95.22-2.49.09-5.02.11-2.54.02-4.8.07-2.27.04-4.18.08-1.91.05-3.15.09-1.16 0-1.67-.17-.51-.18-.51-.58 0-.49.31-1.4.31-.91.8-2.05.49-1.13 1.09-2.35.6-1.22 1.18-2.38l1.2-15.86q.35-4.04.71-8.22.35-4.18.62-8.09l.75-11.77q.27-4.18.36-6.07.09-1.89.09-2.06.09-.8.13-1.34.05-.53.16-.89.11-.35.33-.53.22-.18.67-.27l15.59-3.68q.49-.18 1.2-.18.49 0 .69.29.2.29.2 1.09 0 .08-.02.24-.02.16-.02.29"></path><rect width="43.37" height="67.89" x="-21.68" y="-33.95" fill="none" rx="0" ry="0" transform="translate(402.51 39.12)"></rect><path fill="#151515" d="m428.175 71.675 2.23-30.39q1.11-15.28 1.64-22.44.53-7.15.53-7.11.05-.8.09-1.33.05-.53.18-.89.13-.35.36-.53.22-.18.66-.27l15.38-3.69q.57-.17 1.2-.17.62 0 .84.37.22.38.22 1.54-.31 2.75-.49 5.15-.17 2.4-.29 4.58-.11 2.17-.2 4.2-.08 2.02-.22 4.02-.26 2.18-.46 4.35-.2 2.18-.38 4.51l-.38 4.93q-.2 2.6-.47 5.67l-1.95 23.42q-.05.4-.16.77-.11.38-.6.6-.04 0-.53.18-.49.18-1.29.47t-1.86.6q-1.07.31-2.27.58-2 .44-3.49.88-1.49.45-2.64.83-1.16.37-2.14.6-.97.22-1.95.22-.67 0-1.11-.36-.45-.35-.45-1.29"></path><rect width="23.33" height="68.47" x="-11.66" y="-34.23" fill="none" rx="0" ry="0" transform="translate(440.34 39.59)"></rect><path fill="#151515" d="M457.285 40.225q0-4.89 1.18-9.4 1.17-4.51 3.35-8.42t5.27-7.11q3.08-3.2 6.91-5.49 3.82-2.29 8.28-3.53 4.47-1.25 9.4-1.25 3.91 0 6.87.51 2.95.52 5.15 1.29 2.2.78 3.69 1.71 1.49.94 2.46 1.78-.04 0-.04.31 0 .67.11 2.45.11 1.77.27 3.95.15 2.18.26 4.42.11 2.25.11 3.89 0 .27-.17.6-.18.33-.89.33-.4 0-.98-.13-.93-.27-2.35-1.22-1.43-.96-3.31-2-1.89-1.05-4.23-1.87-2.33-.82-5.08-.82-3.65 0-6.62 1.44-2.98 1.45-5.07 3.98-2.09 2.53-3.24 6.02-1.16 3.49-1.16 7.62 0 3.65.8 6.96t2.42 5.79q1.62 2.49 4.05 3.98 2.42 1.49 5.62 1.49 2.53 0 4.48-.18 1.96-.18 3.65-.58 1.69-.4 3.31-1.06 1.62-.67 3.49-1.69.09-.04.44-.04.31 0 .42.24.11.24.11 1v5.33q0 1.47-.02 2.87-.02 1.4-.04 2.51-.02 1.11-.05 1.8-.02.69-.06.69-2.05 1.28-4.38 2.11-2.33.82-4.8 1.29-2.47.46-4.95.62-2.49.15-4.8.15-6.27 0-11.73-2.37-5.47-2.38-9.49-6.65-4.02-4.26-6.33-10.22-2.31-5.95-2.31-13.1"></path><rect width="53.27" height="67.54" x="-26.64" y="-33.77" fill="none" rx="0" ry="0" transform="translate(484.42 39.3)"></rect><path fill="#151515" d="M514.465 11.075q.27-.18.92-.47.64-.29 1.51-.64l1.86-.78q1-.42 2.02-.82l5.16-2.05q.58-.26 1.06-.26.36 0 .78.2.42.2.96.73l10.26 19.91.27-.67 4.4-8.13 1.66-2.98q.83-1.47 1.47-2.62.64-1.16 1.09-1.87.44-.71.53-.71l15.24-3.82q.54-.13.89-.13 1.02 0 1.02.93-.04.22-.09.6-.04.38-.26.82l-13.07 24.22q-.97 1.82-1.97 3.64t-1.94 3.45q-.93 1.62-1.66 2.95-.74 1.33-1.18 2.18l-.31 1.46-2.49 16.67q-.13.75-.22 1.24t-.25.8q-.15.31-.4.53-.24.23-.68.45l-12.62 6.62q-.71.35-1.49.58-.78.22-1.49.22-.76 0-1.29-.34-.53-.33-.53-1.08v-.18q.18-2.53.64-5.89.47-3.35 1-6.55l2.49-16.49q-.71-1.51-1.87-4l-2.48-5.37q-1.34-2.89-2.78-5.96-1.45-3.06-2.71-5.8-1.27-2.73-2.27-4.82-1-2.09-1.49-3.06-.22-.67-.22-1.38 0-.4.11-.78t.42-.55"></path><rect width="51.63" height="67.36" x="-25.82" y="-33.68" fill="none" rx="0" ry="0" transform="translate(540.25 40.15)"></rect></svg></svg>
